<mxfile host="65bd71144e">
    <diagram id="Ad8CBXObq0MiiFEZCeCu" name="Page-1">
        <mxGraphModel dx="1283" dy="635" grid="1" gridSize="10" guides="1" tooltips="1" connect="1" arrows="1" fold="1" page="1" pageScale="1" pageWidth="850" pageHeight="1100" math="0" shadow="0">
            <root>
                <mxCell id="0"/>
                <mxCell id="1" parent="0"/>
                <mxCell id="2" value="" style="group" connectable="0" vertex="1" parent="1">
                    <mxGeometry x="-69.5" y="270.15625" width="280" height="240" as="geometry"/>
                </mxCell>
                <mxCell id="3" value="" style="rounded=0;whiteSpace=wrap;html=1;fillStyle=auto;fontFamily=Helvetica;fontSize=11;fontColor=#000000;fillColor=#FFFFFF;rotation=90;" vertex="1" parent="2">
                    <mxGeometry x="50" y="70" width="180" height="40" as="geometry"/>
                </mxCell>
                <mxCell id="4" value="" style="endArrow=none;html=1;rounded=0;strokeWidth=1;fontFamily=Helvetica;fontSize=11;fontColor=#000000;startSize=5;endSize=5;sourcePerimeterSpacing=0;jumpStyle=none;entryX=1;entryY=0.5;entryDx=0;entryDy=0;dashed=1;exitX=0;exitY=0.5;exitDx=0;exitDy=0;" edge="1" parent="2" source="3" target="3">
                    <mxGeometry width="50" height="50" relative="1" as="geometry">
                        <mxPoint x="-173.9300000000003" y="175.7800000000002" as="sourcePoint"/>
                        <mxPoint x="-123.93000000000029" y="125.7800000000002" as="targetPoint"/>
                    </mxGeometry>
                </mxCell>
                <mxCell id="5" value="" style="rounded=0;whiteSpace=wrap;html=1;fillStyle=auto;fontFamily=Helvetica;fontSize=11;fontColor=#000000;fillColor=#FFFFFF;rotation=-180;" vertex="1" parent="2">
                    <mxGeometry y="220" width="280" height="20" as="geometry"/>
                </mxCell>
                <mxCell id="6" value="" style="group" connectable="0" vertex="1" parent="2">
                    <mxGeometry x="159.90999999999985" y="141" width="78.28" height="78.28" as="geometry"/>
                </mxCell>
                <mxCell id="7" value="" style="ellipse;whiteSpace=wrap;html=1;aspect=fixed;fillColor=none;strokeColor=#FF3333;" vertex="1" parent="6">
                    <mxGeometry width="78.28" height="78.28" as="geometry"/>
                </mxCell>
                <mxCell id="8" value="r" style="endArrow=classic;html=1;rounded=0;strokeColor=#FF3333;fontColor=#FF3333;fontSize=14;labelBackgroundColor=none;" edge="1" parent="6">
                    <mxGeometry x="-0.25" y="7" width="50" height="50" relative="1" as="geometry">
                        <mxPoint x="39.14" y="39.14" as="sourcePoint"/>
                        <mxPoint x="65.23333333333332" y="13.046666666666663" as="targetPoint"/>
                        <mxPoint as="offset"/>
                    </mxGeometry>
                </mxCell>
                <mxCell id="9" value="" style="endArrow=none;html=1;rounded=0;labelBackgroundColor=none;fontSize=15;edgeStyle=orthogonalEdgeStyle;curved=1;strokeColor=#990099;strokeWidth=7;" edge="1" parent="2">
                    <mxGeometry width="50" height="50" relative="1" as="geometry">
                        <mxPoint x="290" y="230" as="sourcePoint"/>
                        <mxPoint x="150" y="170" as="targetPoint"/>
                        <Array as="points">
                            <mxPoint x="276" y="229.9399999999996"/>
                            <mxPoint x="140" y="229.9399999999996"/>
                        </Array>
                    </mxGeometry>
                </mxCell>
                <mxCell id="10" value="" style="endArrow=none;html=1;rounded=0;labelBackgroundColor=none;fontSize=15;edgeStyle=orthogonalEdgeStyle;curved=1;strokeColor=#990099;strokeWidth=7;" edge="1" parent="2">
                    <mxGeometry width="50" height="50" relative="1" as="geometry">
                        <mxPoint x="150" y="170" as="sourcePoint"/>
                        <mxPoint x="150" y="-10" as="targetPoint"/>
                        <Array as="points">
                            <mxPoint x="150" y="-20"/>
                            <mxPoint x="150" y="-20"/>
                        </Array>
                    </mxGeometry>
                </mxCell>
            </root>
        </mxGraphModel>
    </diagram>
</mxfile>